# xmcd
#
# Track frame offsets:
#	150
#	15482
#	34377
#	46005
#	63620
#	74192
#	86490
#	108467
#	121982
#	133982
#	151790
#	164607
#	188827
#	209422
#	221602
#	242330
#	255092
#	264475
#	275955
#
# Disc length: 3898
#
# Revision: 3
# Processed by: cddbd v1.5.1PL0 Copyright (c) Steve Scherf et al.
# Submitted via: EasyCDDAExtractor 5.1.0
# Normalized: r2:DSETVAR1
#
DISCID=1a0f3813
DTITLE=Various Artist - Saturday Night At Duck's  (19 Shaggin' Dance Favorites)
DYEAR=1900
DGENRE=Blues
TTITLE0=Al Marshall - Be My Guest
TTITLE1=Edwin Starr - I'm So Into You
TTITLE2=Eddie Burns - Hard Hearted Woman
TTITLE3=Boogie Man - Boppin Shoes
TTITLE4=Matilda Jones - Wrong Too Long
TTITLE5=Bobby Patterson - I'm In Love With You
TTITLE6=Who Dun It - Marla's Memory Lane
TTITLE7=Lonnie Youngblood - Let My Love Bring Out The Woman
TTITLE8=Leroy Little - Let Me Go Home Whiskey
TTITLE9=Boys Town Gang - Brand New Me
TTITLE10=Big Al Downing - Darlene
TTITLE11=Joe Turner - Shout
TTITLE12=Billy Boy Arnold - Yellow Rose From Texas
TTITLE13=Bette Watts - Let It Be
TTITLE14=Randy Brown - Love Be With You (Til We Meet Again)
TTITLE15=BB King - Shut Your Mouth
TTITLE16=Tony Middleton - Sweet Baby Of Mine
TTITLE17=Buddy Cypress - I'm In Love With You, Baby
TTITLE18=Billy Always - More Than A Minute
EXTD=
EXTT0=
EXTT1=
EXTT2=
EXTT3=
EXTT4=
EXTT5=
EXTT6=
EXTT7=
EXTT8=
EXTT9=
EXTT10=
EXTT11=
EXTT12=
EXTT13=
EXTT14=
EXTT15=
EXTT16=
EXTT17=
EXTT18=
PLAYORDER=
